<svg xmlns="http://www.w3.org/2000/svg" aria-label="Agape Counseling Services" viewBox="0 0 512 512"><path fill="#3a6faa" fill-rule="evenodd" d="M350.3 111c-5 3.8-16.4 15.2-32.7 32.8-3.8 5-7.6 7.5-8.8 7.5l-5-7.5c-3.8-7.6-12.6-17.6-17.6-18.9-6.3-1.3-18.9 1.3-35.2 6.3a233 233 0 0 1-41.5 10c-5 1.3-11.3 2.6-15.1 2.6a397 397 0 0 1-55.3 5 244 244 0 0 0-23.9 1.2v2.6c0 2.5 2.5 6.2 10 12.5Q146 184 148 184s2.5 1.2 3.8 3.7c1.2 1.3 3.7 3.8 6.2 3.8 1.3 1.3 3.8 2.5 7.6 5 5 3.8 22.6 13.9 28.9 15.1 12.6 5 25.1 6.3 45.2 7.6 34 1.2 37.8 3.7 29 20-3.8 7.6-11.4 14-29 24-5 2.5-12.5 7.5-16.3 11.3-10 8.8-10 11.3-2.5 25.1a157 157 0 0 0 28.9 36.5c18.9 20 31.4 27.6 46.5 27.6 5 0 6.3 0 8.8-3.7 3.8-3.8 3.8-8.8 0-18.9-1.3-5-2.5-11.3-3.8-16.3a47 47 0 0 1-2.5-11.4c-1.2-2.5-1.2-6.2-1.2-8.8 1.2-1.2 1.2-5 2.5-8.8 3.7-18.8 12.5-31.4 31.4-45.2a78 78 0 0 0 18.9-17.6c10-12.6 12.5-22.6 15-52.8 1.3-17.6 2.6-23.9 7.6-32.7 3.8-8.8 5-10 15-17.6 10.1-6.3 11.4-8.8 5.1-11.3a32 32 0 0 0-11.3-5 33 33 0 0 0-8.8-3.8c-1.3 0-2.5 0-2.5-1.2-2.5-2.6-12.6-1.3-20.1 2.5"/><path fill="none" stroke="#3a6faa" stroke-width="12" d="M129 480a235.5 235.5 0 1 1 255.8-1.2"/></svg>