<svg xmlns="http://www.w3.org/2000/svg" viewBox="0 0 1649.237 1437.213"><path fill="#3a6faa" d="M356.665.456c-157.5 7.3-296.2 129.6-340.5 300.1-82.3 317.6 156 712.5 568.5 941.8 337.2 187.4 785.1 249 1043 143.5 7.7-3.2 15.7-6.4 17.8-7.3 3.7-1.5 5.3-3.8 1.9-2.8-2.4.7-31.5 6.1-45.7 8.5-212.5 35.6-500.5-8.7-751.5-115.7-292.3-124.5-500.8-313.7-634.6-575.7-45.7-89.5-66.4-153.3-73.5-227-11.6-119.3 38.4-226.5 131.3-280.8 14.6-8.7 46.8-22.4 46.8-20 0 .3.6.1 1.3-.5 3.8-3.2 37.6-8.3 49.7-7.6 22.7 1.4 35.7 4.1 54.2 11.3 51.9 20.3 90.7 62.3 169.9 183.6 40.6 62.3 50.8 77.7 62 93.5 32.2 45.5 55.8 52.5 83.4 24.6 11-11 15.7-18 40.5-59 91.1-151.3 177-216.1 286.5-216 145.5 0 243.1 117.5 253.5 305 8 143.7-65.2 361.2-198.3 588.9-21.4 36.6-50.8 85.3-53.4 88.4-1.5 1.8-60.6-38.5-89.8-61.3-73.4-57.1-133.6-121.4-164.3-175.7-4-7.1-4.1-6.9 1.8-6.9 48 0 116.4-26.2 160.5-61.5 57-45.7 86.7-87.7 160.3-227 41-77.6 67.8-111.2 108.7-136 5.9-3.5 12.2-7 14.1-7.7 4.9-1.7 4.6-2-7.5-6.7-89.5-34.3-219.9-39.8-320.6-13.6-80.6 21.1-135.6 51.1-204.4 111.9-69.9 61.7-84.3 61.2-129.1-4.4-44.2-64.6-73.8-85.4-119.4-83.7-27.3.9-39.8 7.4-64.2 33.2-7 7.5-16.2 16.2-20.4 19.4-15.6 12.2-18.8 17.2-11.8 18.6 60.8 12.1 83.9 48.6 97.3 153.5 10.7 84.4 19.4 118.3 42.2 166 53.8 112.6 178.8 216.8 365.3 304.8 70.1 33.1 123.5 53.7 197.5 76.1 138.5 42 286.4 56.2 416.5 40 27.6-3.4 27.2-3.6-11.5-5.9-112.1-6.9-257.4-46.3-357.6-97.1-10.7-5.4-10.7-5.4-.7-19.4 173.3-244.1 278.2-514.1 278.3-716.5 0-258.9-152.8-432.8-374-425.7-123.9 4-234.8 72.1-323.6 198.8-3.8 5.3-4.3 5.7-5.4 4.2-.7-1-6.8-10.8-13.5-21.8-15.7-25.4-40.2-63.1-47.6-73.2-60.6-82.4-134.4-135.7-211.4-152.7-20-4.4-30.9-5.6-59.5-6.9-2.7-.1-11.3 0-19 .4"/></svg>